<?xml version="1.0" encoding="utf-8"?>
<!-- Generator: Adobe Illustrator 18.0.0, SVG Export Plug-In . SVG Version: 6.00 Build 0)  -->
<!DOCTYPE svg PUBLIC "-//W3C//DTD SVG 1.1//EN" "http://www.w3.org/Graphics/SVG/1.1/DTD/svg11.dtd" [
	<!ENTITY ns_flows "http://ns.adobe.com/Flows/1.0/">
	<!ENTITY ns_extend "http://ns.adobe.com/Extensibility/1.0/">
	<!ENTITY ns_ai "http://ns.adobe.com/AdobeIllustrator/10.0/">
	<!ENTITY ns_graphs "http://ns.adobe.com/Graphs/1.0/">
]>
<svg version="1.1" id="Layer_1" xmlns:x="&ns_extend;" xmlns:i="&ns_ai;" xmlns:graph="&ns_graphs;"
	 xmlns="http://www.w3.org/2000/svg" xmlns:xlink="http://www.w3.org/1999/xlink" xmlns:a="http://ns.adobe.com/AdobeSVGViewerExtensions/3.0/"
	 x="0px" y="0px" viewBox="0 0 1400 980" enable-background="new 0 0 1400 980" xml:space="preserve">
<g>
	<defs>
		<rect id="SVGID_1_" x="0" width="1400" height="980"/>
	</defs>
	<clipPath id="SVGID_2_">
		<use xlink:href="#SVGID_1_"  overflow="visible"/>
	</clipPath>
	<g clip-path="url(#SVGID_2_)">
		<rect x="0" fill="#AED9AE" width="1400" height="980"/>
		<rect x="288.8" y="269.7" opacity="0.5" fill="#AED9AE"  a:adobe-blending-mode="multiply" width="351.2" height="247.6"/>
		<g opacity="0.52"  a:adobe-blending-mode="multiply">
			<g  a:adobe-blending-mode="normal">
				<g>
					<path fill="#AED9AE" d="M517.3,160.9h-36.6V-8h-4.4v168.9H287.1V-8h-4.4v168.9H246c-14.3,0-25.8,11.6-25.8,25.8v2.4
						c0,2.5,2,4.5,4.5,4.5h10.6c-0.1,0.3-0.1,0.7-0.1,1v0c0,3.3,2.7,6,6,6h285c3.3,0,6-2.7,6-6v0c0-0.3,0-0.7-0.1-1h6.6
						c2.5,0,4.5-2,4.5-4.5v-2.4C543.2,172.5,531.6,160.9,517.3,160.9z"/>
				</g>
				<g>
					<path fill="#AED9AE" d="M1141.3,160.9h-36.6V-8h-4.4v168.9H911.1V-8h-4.4v168.9h-36.6c-14.3,0-25.8,11.6-25.8,25.8v2.4
						c0,2.5,2,4.5,4.5,4.5h10.6c-0.1,0.3-0.1,0.7-0.1,1v0c0,3.3,2.7,6,6,6h285c3.3,0,6-2.7,6-6v0c0-0.3,0-0.7-0.1-1h6.6
						c2.5,0,4.5-2,4.5-4.5v-2.4C1167.2,172.5,1155.6,160.9,1141.3,160.9z"/>
				</g>
			</g>
		</g>
		<g>
			<g>
				<rect x="949" y="300.1" fill="#9AC19C" width="129" height="185.5"/>
			</g>
			<rect x="949" y="300.1" fill="#9EBE6D" width="129" height="4.3"/>
			<g>
				<g>
					<g>
						<path fill="#48614D" d="M1003.2,340.4V312h20.5v3.4h-16.8v8.7h15.7v3.3h-15.7v9.7h17.4v3.4H1003.2z"/>
					</g>
					<g>
						<path fill="#48614D" d="M979.8,381.7v-28.4h5.7l6.7,20.1c0.6,1.9,1.1,3.3,1.4,4.2c0.3-1,0.8-2.5,1.5-4.6l6.8-19.8h5.1v28.4
							h-3.6V358l-8.3,23.8h-3.4l-8.2-24.2v24.2H979.8z"/>
						<path fill="#48614D" d="M1044.3,371.8l3.8,0.9c-0.8,3.1-2.2,5.4-4.3,7.1c-2,1.6-4.5,2.4-7.5,2.4c-3.1,0-5.5-0.6-7.5-1.9
							c-1.9-1.2-3.4-3.1-4.4-5.4c-1-2.4-1.5-4.9-1.5-7.6c0-3,0.6-5.5,1.7-7.7c1.1-2.2,2.7-3.9,4.8-5c2.1-1.1,4.4-1.7,6.9-1.7
							c2.8,0,5.2,0.7,7.2,2.2c1.9,1.4,3.3,3.5,4,6.1l-3.7,0.9c-0.7-2.1-1.6-3.6-2.9-4.5c-1.3-0.9-2.8-1.4-4.7-1.4
							c-2.2,0-4,0.5-5.5,1.6c-1.5,1-2.5,2.5-3.1,4.2s-0.9,3.6-0.9,5.5c0,2.4,0.4,4.5,1.1,6.3c0.7,1.8,1.8,3.1,3.3,4
							c1.5,0.9,3.1,1.3,4.8,1.3c2.1,0,3.9-0.6,5.3-1.8C1042.8,376,1043.8,374.2,1044.3,371.8z"/>
					</g>
					<g>
						<path fill="#48614D" d="M966.3,415.7v-22.7h8.5c1.7,0,3.1,0.2,4.2,0.7c1,0.5,1.9,1.2,2.5,2.1c0.6,1,0.9,2,0.9,3
							c0,1-0.3,1.9-0.8,2.7c-0.5,0.9-1.3,1.5-2.4,2.1c1.4,0.4,2.4,1.1,3.2,2.1c0.7,1,1.1,2.1,1.1,3.4c0,1.1-0.2,2-0.7,3
							c-0.4,0.9-1,1.6-1.7,2.1c-0.7,0.5-1.5,0.9-2.5,1.1c-1,0.3-2.2,0.4-3.7,0.4H966.3z M969.3,402.6h4.9c1.3,0,2.3-0.1,2.9-0.3
							c0.8-0.2,1.3-0.6,1.7-1.1c0.4-0.5,0.6-1.2,0.6-2c0-0.8-0.2-1.4-0.5-2c-0.4-0.6-0.9-1-1.5-1.2c-0.7-0.2-1.8-0.3-3.4-0.3h-4.5
							V402.6z M969.3,413h5.6c1,0,1.6,0,2-0.1c0.7-0.1,1.3-0.3,1.7-0.6c0.5-0.3,0.8-0.7,1.1-1.3c0.3-0.6,0.4-1.2,0.4-1.9
							c0-0.8-0.2-1.6-0.6-2.2c-0.4-0.6-1-1.1-1.8-1.3c-0.8-0.3-1.9-0.4-3.3-0.4h-5.2V413z"/>
						<path fill="#48614D" d="M1001.5,415.7v-20h-7.5v-2.7h18v2.7h-7.5v20H1001.5z"/>
						<path fill="#48614D" d="M1023.2,415.7v-22.7h3v20h11.2v2.7H1023.2z"/>
						<path fill="#48614D" d="M1048.4,415.7v-22.7h3v20h11.2v2.7H1048.4z"/>
					</g>
					<g>
						<path fill="#48614D" d="M966.8,439v-11.7h-4.4v-1.6h10.5v1.6h-4.4V439H966.8z"/>
						<path fill="#48614D" d="M979.6,439v-13.3h5.9c1.2,0,2.1,0.1,2.7,0.4c0.6,0.2,1.1,0.7,1.5,1.3c0.4,0.6,0.6,1.3,0.6,2
							c0,0.9-0.3,1.7-0.9,2.4c-0.6,0.6-1.6,1.1-2.8,1.2c0.5,0.2,0.8,0.4,1.1,0.7c0.5,0.5,1,1.1,1.5,1.8l2.3,3.6H989l-1.8-2.8
							c-0.5-0.8-0.9-1.4-1.3-1.8c-0.3-0.4-0.6-0.7-0.9-0.9c-0.3-0.2-0.5-0.3-0.8-0.4c-0.2,0-0.5-0.1-1-0.1h-2v5.9H979.6z
							 M981.3,431.6h3.8c0.8,0,1.4-0.1,1.9-0.2c0.5-0.2,0.8-0.4,1-0.8c0.2-0.4,0.4-0.8,0.4-1.2c0-0.6-0.2-1.1-0.7-1.5
							c-0.5-0.4-1.2-0.6-2.2-0.6h-4.2V431.6z"/>
						<path fill="#48614D" d="M1001.9,439l-5.1-13.3h1.9l3.4,9.6c0.3,0.8,0.5,1.5,0.7,2.2c0.2-0.7,0.4-1.4,0.7-2.2l3.6-9.6h1.8
							l-5.2,13.3H1001.9z"/>
						<path fill="#48614D" d="M1025,434.4l1.8,0.4c-0.4,1.4-1,2.5-2,3.3c-1,0.8-2.1,1.1-3.5,1.1c-1.4,0-2.6-0.3-3.5-0.9
							c-0.9-0.6-1.6-1.4-2-2.5c-0.5-1.1-0.7-2.3-0.7-3.6c0-1.4,0.3-2.6,0.8-3.6c0.5-1,1.3-1.8,2.3-2.3c1-0.5,2-0.8,3.2-0.8
							c1.3,0,2.4,0.3,3.3,1c0.9,0.7,1.5,1.6,1.9,2.8l-1.7,0.4c-0.3-1-0.8-1.7-1.3-2.1c-0.6-0.4-1.3-0.7-2.2-0.7
							c-1,0-1.9,0.2-2.6,0.7c-0.7,0.5-1.2,1.1-1.4,2c-0.3,0.8-0.4,1.7-0.4,2.5c0,1.1,0.2,2.1,0.5,3c0.3,0.8,0.8,1.5,1.5,1.9
							c0.7,0.4,1.4,0.6,2.3,0.6c1,0,1.8-0.3,2.5-0.9C1024.3,436.3,1024.8,435.5,1025,434.4z"/>
						<path fill="#48614D" d="M1043.5,434.4l1.8,0.4c-0.4,1.4-1,2.5-2,3.3c-1,0.8-2.1,1.1-3.5,1.1c-1.4,0-2.6-0.3-3.5-0.9
							c-0.9-0.6-1.6-1.4-2-2.5c-0.5-1.1-0.7-2.3-0.7-3.6c0-1.4,0.3-2.6,0.8-3.6c0.5-1,1.3-1.8,2.3-2.3c1-0.5,2-0.8,3.2-0.8
							c1.3,0,2.4,0.3,3.3,1c0.9,0.7,1.5,1.6,1.9,2.8l-1.7,0.4c-0.3-1-0.8-1.7-1.3-2.1c-0.6-0.4-1.3-0.7-2.2-0.7
							c-1,0-1.9,0.2-2.6,0.7c-0.7,0.5-1.2,1.1-1.4,2c-0.3,0.8-0.4,1.7-0.4,2.5c0,1.1,0.2,2.1,0.5,3c0.3,0.8,0.8,1.5,1.5,1.9
							c0.7,0.4,1.4,0.6,2.3,0.6c1,0,1.8-0.3,2.5-0.9C1042.8,436.3,1043.3,435.5,1043.5,434.4z"/>
						<path fill="#48614D" d="M1052.6,439v-13.3h4.6c1,0,1.8,0.1,2.4,0.2c0.8,0.2,1.4,0.5,1.9,0.9c0.7,0.6,1.2,1.3,1.6,2.3
							c0.3,0.9,0.5,2,0.5,3.2c0,1-0.1,1.9-0.4,2.7c-0.2,0.8-0.5,1.4-0.9,1.9c-0.4,0.5-0.8,0.9-1.2,1.2c-0.4,0.3-1,0.5-1.6,0.7
							c-0.6,0.2-1.3,0.2-2.1,0.2H1052.6z M1054.4,437.5h2.8c0.9,0,1.6-0.1,2.1-0.2c0.5-0.2,0.9-0.4,1.2-0.7c0.4-0.4,0.7-1,1-1.7
							c0.2-0.7,0.3-1.6,0.3-2.6c0-1.4-0.2-2.5-0.7-3.2c-0.5-0.7-1-1.2-1.7-1.5c-0.5-0.2-1.2-0.3-2.3-0.3h-2.8V437.5z"/>
					</g>
					<g>
						<path fill="#48614D" d="M964.3,455.4v-9.1h1.8l2.2,6.4c0.2,0.6,0.3,1,0.4,1.3c0.1-0.3,0.3-0.8,0.5-1.5l2.2-6.3h1.6v9.1h-1.2
							v-7.6l-2.6,7.6h-1.1l-2.6-7.7v7.7H964.3z"/>
						<path fill="#48614D" d="M978.5,455.4v-9.1h3.4c0.6,0,1.1,0,1.4,0.1c0.4,0.1,0.8,0.2,1.1,0.4c0.3,0.2,0.5,0.5,0.7,0.9
							c0.2,0.4,0.3,0.8,0.3,1.2c0,0.8-0.2,1.4-0.7,2c-0.5,0.5-1.4,0.8-2.7,0.8h-2.3v3.7H978.5z M979.7,450.7h2.4
							c0.8,0,1.3-0.1,1.7-0.4c0.3-0.3,0.5-0.7,0.5-1.2c0-0.4-0.1-0.7-0.3-1c-0.2-0.3-0.4-0.4-0.8-0.5c-0.2-0.1-0.6-0.1-1.1-0.1h-2.3
							V450.7z"/>
						<path fill="#48614D" d="M992.3,455.4v-8h-3v-1.1h7.2v1.1h-3v8H992.3z"/>
						<path fill="#48614D" d="M1005.3,451.9v-1.1l3.9,0v3.4c-0.6,0.5-1.2,0.8-1.8,1.1c-0.6,0.2-1.3,0.4-1.9,0.4
							c-0.9,0-1.7-0.2-2.4-0.6c-0.7-0.4-1.3-0.9-1.7-1.7c-0.4-0.7-0.6-1.5-0.6-2.4c0-0.9,0.2-1.7,0.6-2.5c0.4-0.8,0.9-1.3,1.6-1.7
							c0.7-0.4,1.5-0.6,2.4-0.6c0.7,0,1.3,0.1,1.8,0.3c0.5,0.2,0.9,0.5,1.3,0.9c0.3,0.4,0.5,0.9,0.7,1.5l-1.1,0.3
							c-0.1-0.5-0.3-0.8-0.5-1.1c-0.2-0.3-0.5-0.5-0.9-0.6c-0.4-0.2-0.8-0.2-1.3-0.2c-0.5,0-1,0.1-1.4,0.3c-0.4,0.2-0.7,0.4-1,0.7
							c-0.2,0.3-0.4,0.6-0.6,0.9c-0.2,0.6-0.3,1.2-0.3,1.8c0,0.8,0.1,1.5,0.4,2c0.3,0.5,0.7,1,1.2,1.2c0.5,0.3,1.1,0.4,1.7,0.4
							c0.5,0,1-0.1,1.5-0.3c0.5-0.2,0.9-0.4,1.1-0.6v-1.7H1005.3z"/>
						<path fill="#48614D" d="M1014.7,455.4v-9.1h1.2v9.1H1014.7z"/>
						<path fill="#48614D" d="M1021.2,451c0-1.5,0.4-2.7,1.2-3.5c0.8-0.9,1.9-1.3,3.1-1.3c0.8,0,1.6,0.2,2.3,0.6
							c0.7,0.4,1.2,1,1.5,1.7c0.4,0.7,0.5,1.5,0.5,2.4c0,0.9-0.2,1.7-0.6,2.5c-0.4,0.7-0.9,1.3-1.6,1.7c-0.7,0.4-1.4,0.6-2.2,0.6
							c-0.9,0-1.6-0.2-2.3-0.6c-0.7-0.4-1.2-1-1.5-1.7C1021.3,452.6,1021.2,451.8,1021.2,451z M1022.4,451c0,1.1,0.3,2,0.9,2.6
							c0.6,0.6,1.3,0.9,2.2,0.9c0.9,0,1.7-0.3,2.2-1c0.6-0.6,0.9-1.5,0.9-2.7c0-0.7-0.1-1.4-0.4-1.9c-0.3-0.6-0.6-1-1.1-1.3
							c-0.5-0.3-1-0.5-1.6-0.5c-0.9,0-1.6,0.3-2.2,0.9C1022.7,448.7,1022.4,449.6,1022.4,451z"/>
						<path fill="#48614D" d="M1040.9,446.3h1.2v5.3c0,0.9-0.1,1.6-0.3,2.2c-0.2,0.5-0.6,1-1.1,1.3c-0.5,0.3-1.2,0.5-2.1,0.5
							c-0.9,0-1.5-0.1-2.1-0.4c-0.5-0.3-0.9-0.7-1.2-1.3c-0.2-0.6-0.3-1.3-0.3-2.3v-5.3h1.2v5.2c0,0.8,0.1,1.4,0.2,1.7
							c0.1,0.4,0.4,0.7,0.8,0.9c0.4,0.2,0.8,0.3,1.3,0.3c0.9,0,1.5-0.2,1.9-0.6c0.4-0.4,0.6-1.2,0.6-2.3V446.3z"/>
						<path fill="#48614D" d="M1047.6,455.4v-9.1h1.2v8h4.5v1.1H1047.6z"/>
						<path fill="#48614D" d="M1057.2,452.8l1.1-0.2c0,0.7,0.2,1.2,0.4,1.4c0.2,0.3,0.6,0.4,1,0.4c0.3,0,0.6-0.1,0.8-0.2
							c0.2-0.1,0.4-0.3,0.5-0.6c0.1-0.2,0.1-0.6,0.1-1.1v-6.3h1.2v6.2c0,0.8-0.1,1.3-0.3,1.8c-0.2,0.4-0.5,0.7-0.9,1
							c-0.4,0.2-0.9,0.3-1.4,0.3c-0.8,0-1.4-0.2-1.8-0.7C1057.4,454.4,1057.2,453.8,1057.2,452.8z"/>
					</g>
					<g>
						<path fill="#48614D" d="M961.5,470.5v-6.3h2.4c0.4,0,0.7,0,1,0.1c0.3,0.1,0.6,0.2,0.8,0.3c0.2,0.1,0.4,0.3,0.5,0.6
							c0.1,0.3,0.2,0.6,0.2,0.9c0,0.5-0.2,1-0.5,1.4c-0.3,0.4-1,0.6-1.9,0.6h-1.6v2.6H961.5z M962.3,467.2h1.6
							c0.5,0,0.9-0.1,1.2-0.3c0.2-0.2,0.3-0.5,0.3-0.9c0-0.3-0.1-0.5-0.2-0.7c-0.1-0.2-0.3-0.3-0.5-0.4c-0.1,0-0.4-0.1-0.8-0.1h-1.6
							V467.2z"/>
						<path fill="#48614D" d="M969.7,470.5v-6.3h2.4c0.5,0,0.9,0.1,1.2,0.2c0.3,0.1,0.5,0.3,0.7,0.6c0.2,0.3,0.2,0.5,0.2,0.8
							c0,0.3-0.1,0.5-0.2,0.8c-0.1,0.2-0.4,0.4-0.7,0.6c0.4,0.1,0.7,0.3,0.9,0.6c0.2,0.3,0.3,0.6,0.3,1c0,0.3-0.1,0.6-0.2,0.8
							c-0.1,0.3-0.3,0.5-0.5,0.6c-0.2,0.1-0.4,0.2-0.7,0.3c-0.3,0.1-0.6,0.1-1,0.1H969.7z M970.5,466.8h1.4c0.4,0,0.6,0,0.8-0.1
							c0.2-0.1,0.4-0.2,0.5-0.3c0.1-0.1,0.2-0.3,0.2-0.6c0-0.2-0.1-0.4-0.2-0.6c-0.1-0.2-0.2-0.3-0.4-0.3c-0.2-0.1-0.5-0.1-1-0.1
							h-1.3V466.8z M970.5,469.7h1.6c0.3,0,0.5,0,0.6,0c0.2,0,0.4-0.1,0.5-0.2c0.1-0.1,0.2-0.2,0.3-0.4c0.1-0.2,0.1-0.3,0.1-0.5
							c0-0.2-0.1-0.4-0.2-0.6c-0.1-0.2-0.3-0.3-0.5-0.4c-0.2-0.1-0.5-0.1-0.9-0.1h-1.5V469.7z"/>
						<path fill="#48614D" d="M978.1,470.5v-6.3h2.2c0.5,0,0.9,0,1.1,0.1c0.4,0.1,0.7,0.2,0.9,0.5c0.3,0.3,0.6,0.6,0.8,1.1
							c0.2,0.4,0.2,0.9,0.2,1.5c0,0.5-0.1,0.9-0.2,1.3c-0.1,0.4-0.3,0.7-0.4,0.9c-0.2,0.2-0.4,0.4-0.6,0.6c-0.2,0.1-0.5,0.2-0.8,0.3
							c-0.3,0.1-0.6,0.1-1,0.1H978.1z M978.9,469.7h1.4c0.4,0,0.7,0,1-0.1c0.2-0.1,0.4-0.2,0.6-0.3c0.2-0.2,0.4-0.5,0.5-0.8
							c0.1-0.3,0.2-0.7,0.2-1.2c0-0.7-0.1-1.2-0.3-1.5c-0.2-0.4-0.5-0.6-0.8-0.7c-0.2-0.1-0.6-0.1-1.1-0.1h-1.3V469.7z"/>
						<path fill="#48614D" d="M986.7,468.4l0.8-0.1c0,0.3,0.1,0.6,0.3,0.8c0.1,0.2,0.4,0.4,0.6,0.5c0.3,0.1,0.6,0.2,1,0.2
							c0.3,0,0.6,0,0.8-0.1c0.2-0.1,0.4-0.2,0.5-0.4c0.1-0.2,0.2-0.3,0.2-0.5c0-0.2-0.1-0.4-0.2-0.5c-0.1-0.1-0.3-0.3-0.6-0.4
							c-0.2-0.1-0.5-0.2-1.1-0.3c-0.6-0.1-1-0.3-1.2-0.4c-0.3-0.2-0.5-0.4-0.7-0.6c-0.1-0.2-0.2-0.5-0.2-0.8c0-0.3,0.1-0.6,0.3-0.9
							c0.2-0.3,0.4-0.5,0.8-0.6c0.3-0.1,0.7-0.2,1.2-0.2c0.5,0,0.9,0.1,1.2,0.2c0.4,0.2,0.6,0.4,0.8,0.7c0.2,0.3,0.3,0.6,0.3,1
							l-0.8,0.1c0-0.4-0.2-0.7-0.4-0.9s-0.6-0.3-1.1-0.3c-0.5,0-0.9,0.1-1.1,0.3c-0.2,0.2-0.3,0.4-0.3,0.7c0,0.2,0.1,0.4,0.2,0.6
							c0.2,0.1,0.6,0.3,1.3,0.5c0.7,0.2,1.2,0.3,1.4,0.4c0.4,0.2,0.6,0.4,0.8,0.6c0.2,0.3,0.3,0.6,0.3,0.9c0,0.3-0.1,0.7-0.3,1
							c-0.2,0.3-0.5,0.5-0.8,0.7c-0.4,0.2-0.8,0.2-1.2,0.2c-0.6,0-1.1-0.1-1.4-0.3c-0.4-0.2-0.7-0.4-0.9-0.8
							C986.8,469.3,986.7,468.9,986.7,468.4z"/>
						<path fill="#48614D" d="M995.3,470.5v-6.3h1.3l1.5,4.5c0.1,0.4,0.2,0.7,0.3,0.9c0.1-0.2,0.2-0.6,0.3-1l1.5-4.4h1.1v6.3h-0.8
							v-5.3l-1.8,5.3H998l-1.8-5.4v5.4H995.3z"/>
						<path fill="#48614D" d="M1008.2,468v-0.7l2.7,0v2.4c-0.4,0.3-0.8,0.6-1.3,0.7c-0.4,0.2-0.9,0.2-1.4,0.2
							c-0.6,0-1.2-0.1-1.7-0.4c-0.5-0.3-0.9-0.7-1.2-1.2c-0.3-0.5-0.4-1.1-0.4-1.7c0-0.6,0.1-1.2,0.4-1.7c0.3-0.5,0.6-0.9,1.1-1.2
							c0.5-0.3,1-0.4,1.7-0.4c0.5,0,0.9,0.1,1.2,0.2c0.4,0.2,0.7,0.4,0.9,0.6c0.2,0.3,0.4,0.6,0.5,1l-0.8,0.2
							c-0.1-0.3-0.2-0.6-0.4-0.8c-0.1-0.2-0.3-0.3-0.6-0.4c-0.3-0.1-0.6-0.2-0.9-0.2c-0.4,0-0.7,0.1-1,0.2s-0.5,0.3-0.7,0.5
							c-0.2,0.2-0.3,0.4-0.4,0.6c-0.2,0.4-0.2,0.8-0.2,1.3c0,0.6,0.1,1,0.3,1.4c0.2,0.4,0.5,0.7,0.9,0.8c0.4,0.2,0.8,0.3,1.2,0.3
							c0.4,0,0.7-0.1,1.1-0.2c0.3-0.1,0.6-0.3,0.8-0.4V468H1008.2z"/>
						<path fill="#48614D" d="M1018.3,469.7v0.8h-4.2c0-0.2,0-0.4,0.1-0.5c0.1-0.3,0.3-0.6,0.5-0.8c0.2-0.3,0.6-0.6,1-1
							c0.7-0.6,1.2-1,1.4-1.3c0.2-0.3,0.4-0.6,0.4-0.9c0-0.3-0.1-0.6-0.3-0.8c-0.2-0.2-0.5-0.3-0.9-0.3c-0.4,0-0.7,0.1-0.9,0.3
							c-0.2,0.2-0.3,0.5-0.3,0.9l-0.8-0.1c0.1-0.6,0.3-1.1,0.6-1.4c0.4-0.3,0.8-0.5,1.4-0.5c0.6,0,1.1,0.2,1.4,0.5
							c0.4,0.3,0.5,0.8,0.5,1.3c0,0.3-0.1,0.5-0.2,0.7c-0.1,0.2-0.3,0.5-0.5,0.8c-0.2,0.3-0.6,0.6-1.2,1.1c-0.5,0.4-0.8,0.7-0.9,0.8
							s-0.2,0.3-0.3,0.4H1018.3z"/>
						<path fill="#48614D" d="M1024.6,470.5h-0.8v-5c-0.2,0.2-0.4,0.4-0.7,0.5c-0.3,0.2-0.6,0.3-0.8,0.4v-0.8
							c0.4-0.2,0.8-0.5,1.1-0.7c0.3-0.3,0.6-0.6,0.7-0.8h0.5V470.5z"/>
						<path fill="#48614D" d="M1028.9,468.7l0.8-0.1c0,0.5,0.1,0.8,0.3,1c0.2,0.2,0.4,0.3,0.7,0.3c0.2,0,0.4,0,0.5-0.1
							c0.2-0.1,0.3-0.2,0.3-0.4c0.1-0.2,0.1-0.4,0.1-0.8v-4.4h0.8v4.3c0,0.5-0.1,0.9-0.2,1.2c-0.1,0.3-0.3,0.5-0.6,0.7
							c-0.3,0.2-0.6,0.2-1,0.2c-0.6,0-1-0.2-1.3-0.5C1029,469.8,1028.9,469.3,1028.9,468.7z"/>
						<path fill="#48614D" d="M1036.2,470.5v-6.3h0.8v3.1l3.2-3.1h1.1l-2.7,2.6l2.8,3.8h-1.1l-2.3-3.2l-1,1v2.2H1036.2z"/>
						<path fill="#48614D" d="M1044.6,470.5v-6.3h2.4c0.4,0,0.7,0,1,0.1c0.3,0.1,0.6,0.2,0.8,0.3c0.2,0.1,0.4,0.3,0.5,0.6
							c0.1,0.3,0.2,0.6,0.2,0.9c0,0.5-0.2,1-0.5,1.4c-0.3,0.4-1,0.6-1.9,0.6h-1.6v2.6H1044.6z M1045.5,467.2h1.6
							c0.5,0,0.9-0.1,1.2-0.3c0.2-0.2,0.3-0.5,0.3-0.9c0-0.3-0.1-0.5-0.2-0.7c-0.1-0.2-0.3-0.3-0.5-0.4c-0.1,0-0.4-0.1-0.8-0.1h-1.6
							V467.2z"/>
						<path fill="#48614D" d="M1054.3,470.5v-5.6h-2.1v-0.8h5v0.8h-2.1v5.6H1054.3z"/>
						<path fill="#48614D" d="M1060.4,470.5v-6.3h0.8v3.1l3.2-3.1h1.1l-2.7,2.6l2.8,3.8h-1.1l-2.3-3.2l-1,1v2.2H1060.4z"/>
					</g>
				</g>
			</g>
		</g>
		<g>
			<rect x="295.4" y="276.2" fill="#84A787" width="351.2" height="247.6"/>
			<rect x="303.9" y="284.7" fill="#AED9AE" width="334.3" height="232.1"/>
			<g>
				<polygon fill="#A2CBA4" points="328.3,381.3 328.3,434.6 332.2,438.7 332.2,342.2 348.5,373.7 348.5,416 356.3,416 356.3,381.3 
					383.5,381.3 383.5,398.3 404,398.3 404,352 432.9,352 432.9,393.3 452.2,393.3 452.2,364.9 458.8,358.6 484.1,358.6 
					489.5,366.2 489.5,420.4 504.6,420.4 504.6,338.4 534.7,311.9 534.7,366.8 574.5,366.8 574.5,352 590.2,352 590.2,395.8 
					599.8,395.8 599.8,356.3 611.9,342.4 638.1,342.4 638.1,293.8 616,293.8 616,308 596.7,308.6 596.7,293.8 538.5,293.8 
					538.5,303.8 532.6,303.8 532.6,293.8 515.2,293.8 515.2,315.4 505.2,317.9 505.2,293.8 418.1,293.8 418.1,301.1 414,301.1 
					414,318.5 380.8,318.5 380.8,300.2 361.6,300.2 361.6,293.8 330.9,293.8 330.9,308 311.6,308.6 311.6,293.8 303.9,293.8 
					303.9,368.7 320.8,368.7 				"/>
				<polygon fill="#96BC98" points="638.1,333.3 611.9,333.3 599.8,347.2 599.8,386.7 590.2,386.7 590.2,342.9 574.5,342.9 
					574.5,357.7 534.7,357.7 534.7,302.8 504.6,329.3 504.6,411.3 489.5,411.3 489.5,357.1 484.1,349.5 458.8,349.5 452.2,355.8 
					452.2,384.2 432.9,384.2 432.9,342.9 404,342.9 404,389.2 383.5,389.2 383.5,372.2 356.3,372.2 356.3,406.9 348.5,406.9 
					348.5,364.6 332.2,333.1 332.2,429.6 328.3,425.5 328.3,372.2 320.8,359.6 303.9,359.6 303.9,450 303.9,516.8 638.1,516.8 				
					"/>
			</g>
			<g opacity="0.5"  a:adobe-blending-mode="softLight">
				<polygon fill="#FFFFFF"  a:adobe-blending-mode="normal" points="494.8,284.1 343.7,515.9 384.7,515.9 535.8,284.1 				"/>
				<polygon fill="#FFFFFF"  a:adobe-blending-mode="normal" points="555.1,284.1 404,515.9 423.3,515.9 574.4,284.1 				"/>
			</g>
		</g>
		<path fill="#91CD96" d="M1232.7,796.7H167.3c-14.6,0-26.5,11.8-26.5,26.5v0c0,14.6,11.8,26.5,26.5,26.5h381.6
			c4.3,0,7.7,3.5,7.7,7.7v0c0,4.3-3.5,7.7-7.7,7.7h-46.7c-8.7,0-15.7,7-15.7,15.7v0c0,8.7,7,15.7,15.7,15.7h701.1
			c8.7,0,15.7-7,15.7-15.7v0c0-8.7-7-15.7-15.7-15.7h-46.7c-4.3,0-7.7-3.5-7.7-7.7v0c0-4.3,3.5-7.7,7.7-7.7h76.1
			c14.6,0,26.5-11.8,26.5-26.5v0C1259.2,808.6,1247.3,796.7,1232.7,796.7z"/>
		<path fill="#91CD96" d="M605.9,926.3H441.5c-4.3,0-7.8-3.5-7.8-7.8l0,0c0-4.3,3.5-7.8,7.8-7.8h164.5c4.3,0,7.8,3.5,7.8,7.8l0,0
			C613.7,922.8,610.2,926.3,605.9,926.3z"/>
		<circle fill="#91CD96" cx="417.5" cy="918" r="7.3"/>
		<g>
			<g>
				<g>
					<rect x="289" y="-4" fill="#56805E" width="4.4" height="180"/>
					<rect x="482.6" y="-4" fill="#56805E" width="4.4" height="180"/>
				</g>
				<g>
					<path fill="#FFF570" d="M532.5,204.6h-285c-3.3,0-6-2.7-6-6l0,0c0-3.3,2.7-6,6-6h285c3.3,0,6,2.7,6,6l0,0
						C538.5,202,535.8,204.6,532.5,204.6z"/>
					<path fill="#72B679" d="M523.6,164.9H252.3c-14.3,0-25.8,11.6-25.8,25.8v2.4c0,2.5,2,4.5,4.5,4.5h314c2.5,0,4.5-2,4.5-4.5v-2.4
						C549.5,176.5,537.9,164.9,523.6,164.9z"/>
				</g>
			</g>
			<g>
				<g>
					<rect x="913" y="-4" fill="#56805E" width="4.4" height="180"/>
					<rect x="1106.6" y="-4" fill="#56805E" width="4.4" height="180"/>
				</g>
				<g>
					<path fill="#FFF570" d="M1156.5,204.6h-285c-3.3,0-6-2.7-6-6l0,0c0-3.3,2.7-6,6-6h285c3.3,0,6,2.7,6,6l0,0
						C1162.5,202,1159.8,204.6,1156.5,204.6z"/>
					<path fill="#72B679" d="M1147.7,164.9H876.4c-14.3,0-25.8,11.6-25.8,25.8v2.4c0,2.5,2,4.5,4.5,4.5h314c2.5,0,4.5-2,4.5-4.5
						v-2.4C1173.5,176.5,1161.9,164.9,1147.7,164.9z"/>
				</g>
			</g>
		</g>
		<path fill="#91CD96"  a:adobe-blending-mode="multiply" d="M994.2,817.5H405.8c-5.9,0-10.8,4.8-10.8,10.8s4.8,10.8,10.8,10.8
			h588.4c5.9,0,10.8-4.8,10.8-10.8S1000.1,817.5,994.2,817.5z"/>
		<g>
			<g>
				<rect x="703.1" y="446.4" fill="#A7CEDA" width="71.8" height="112.5"/>
				<rect x="703.1" y="476.4" fill="#7B99A3" width="71.8" height="52.5"/>
				<rect x="703.1" y="480.3" fill="#A7CEDA" width="71.8" height="44.6"/>
				<rect x="783.4" y="446.4" fill="#A7CEDA" width="8.2" height="112.5"/>
				<rect x="780.9" y="403.1" fill="#244D41" width="13.2" height="43.5"/>
				<rect x="703.1" y="448.6" fill="#244D41" width="71.8" height="3.6"/>
				<rect x="689.4" y="554.3" fill="#7B99A3" width="105.3" height="21.1"/>
				<rect x="830.1" y="395" fill="#244D41" width="7.9" height="78.9"/>
				<rect x="822.3" y="464.3" fill="#696A77" width="17.9" height="4.7"/>
				<path fill="#A7CEDA" d="M840.1,465.4c0,0-14.6,0-20.4,0c-5.7,0-5.7-12.2-5.7-12.2h26.1V465.4z"/>
				<rect x="822.3" y="392.9" fill="#696A77" width="17.9" height="4.7"/>
				<path fill="#A7CEDA" d="M840.1,396.4c0,0-14.6,0-20.4,0c-5.7,0-5.7,12.2-5.7,12.2h26.1V396.4z"/>
				<rect x="827.3" y="453.2" fill="#7B99A3" width="7.9" height="122.1"/>
				<rect x="689.4" y="559.6" fill="#A7CEDA" width="105.3" height="4.6"/>
				<rect x="665.1" y="583.2" fill="#7B99A3" width="153.9" height="16.1"/>
				<rect x="731.6" y="583.2" fill="#7B99A3" width="21" height="202.5"/>
				
					<rect x="601.1" y="578.7" transform="matrix(0.9798 -0.2001 0.2001 0.9798 -103.9947 139.4912)" fill="#7B99A3" width="73.8" height="11"/>
				<rect x="641.2" y="571.8" fill="#A7CEDA" width="201.8" height="21.1"/>
				<rect x="686.2" y="771" fill="#A7CEDA" width="111.8" height="21.1"/>
				<rect x="686.2" y="771" fill="#A7CEDA" width="9.3" height="36.8"/>
				<rect x="788.7" y="771" fill="#A7CEDA" width="9.3" height="36.8"/>
				<rect x="713.2" y="404.6" fill="#A7CEDA" width="6.1" height="31.8"/>
				<rect x="696.5" y="400" fill="#7B99A3" width="18.2" height="41.1"/>
				<polygon fill="#244D41" points="756.6,449.3 721.3,449.3 718.4,408.2 759.5,408.2 				"/>
				<rect x="718.4" y="400" fill="#7B99A3" width="41.1" height="41.1"/>
				<path fill="#244D41" d="M653,398.6c0,0,0,17.1,0,23.6c0,6.4,2.5,8.6,9.3,8.6c6.8,0,19.6,0,23.2,0s6.2-0.4,6.2,6.2
					c0,6.6,4.5,5.9,9.1,5.9v-44.3H653z"/>
				<g>
					<circle fill="#A7CEDA" cx="739" cy="419.8" r="11.6"/>
					<circle fill="#244D41" cx="739" cy="419.8" r="9.1"/>
					<circle fill="#A7CEDA" cx="739" cy="419.8" r="3.4"/>
				</g>
				<circle fill="#A7CEDA" cx="830.8" cy="461.1" r="1.4"/>
			</g>
			<g>
				<g>
					<path fill="#603A17" d="M705,812.5l-11,6.4v6.1h39.4v-2.5h11.2l3.1,3h29.9c0,0,1.8-8.7-3.7-9.8
						C768.4,814.6,705,812.5,705,812.5z"/>
					<path fill="#3B2416" d="M753,788.9c0,0,0,13.2-12.5,13.2s-41.8-3.2-43.9,2.1c-2.1,5.4-2.5,14.6-2.5,14.6s68.6,0,75,0
						s8.9,2.9,8.9-12.1c0-7.9-2.5-22.5-2.5-22.5L753,788.9z"/>
				</g>
				<path fill="#A87D50" d="M877.7,610.1c0,0-104.5,20.5-112.1,24.8c-7.6,4.3-15.5,162.4-15.5,162.4s26.1,2.4,31.8,1
					c5.7-1.4,18.9-125.7,18.9-125.7s120.7-4.3,133.6-8.6c12.9-4.3,12.4-26.7,12.4-28.1S877.7,610.1,877.7,610.1z"/>
				<path fill="#E7B06C" d="M888.4,459.2c0,0,8.1,9.8,5,17.1c-3.1,7.4-4.3,8.6-4.3,8.6l19.3-8.6l9.5-11.9L904.9,443L888.4,459.2z"/>
				<path fill="#F9A767" d="M918,464.4l-11.3-18.5c-1.5,2.6-2.7,4.7-2.7,4.7s7.1,15.7-0.2,25.5c-1.1,1.5-1.1,2.3-0.4,2.5l5.2-2.3
					L918,464.4z"/>
				<path fill="#F9A767" d="M904.9,443l-16.4,16.2c0,0,1.6,2,3.1,4.8c0.6-0.2,1.2-0.5,1.9-0.7c8.8-3.6,13.8-9.3,15.8-13.1L904.9,443
					z"/>
				<path fill="#EA8731" d="M913.7,462.1c0,0-28.6,17.1-35.4,36.4c-6.8,19.3-1.8,71.1-5.4,83.2c-3.6,12.1-9.3,19.6-11.4,25
					c-2.1,5.4-0.7,10.7,1.4,12.1s-2.1,4.6-0.7,7.9c1.4,3.2,33.2,18.6,58.6,19.6s28.9-3.9,28.9-7.9s-2.9-8.2-2.9-10.7
					s3.6-23.2,3.6-40c0-16.8-2.5-87.9-8.2-103.9C936.5,467.8,923.7,455.3,913.7,462.1z"/>
				<path fill="#EFE7E4" d="M872.8,582.1h77.5c-0.1-8.5-0.6-21.8-1.3-36.1h-74.6c0,15.7,0.2,30-1.5,35.7
					C872.9,581.9,872.9,582,872.8,582.1z"/>
				<path fill="#E7B06C" d="M896.9,535.3c0,0-0.7,48.2-2.5,52.1c-1.8,3.9-61.4,22.9-61.4,22.9s-12.9-0.7-19.3,0.7
					c-6.4,1.4-12.9,7.5-13.9,10.4s2.5,6.4,8.2,7.1s11.8-2.5,11.8-2.5s13.9,0.7,17.1-6.1c0,0,77.9-8.6,82.5-21.4
					c4.6-12.9,5.7-61.8,5.7-61.8L896.9,535.3z"/>
				<path fill="#E86F32" d="M888,541.8h47.1c0,0,1.8-62.5-18.9-67.5c-20.7-5-23.2,10.4-24.3,22.1C890.8,508.2,888,541.8,888,541.8z"
					/>
				<path fill="#231F20" d="M865.4,416.9c0,0-7.9-13-4.8-22.7c3.2-9.8,25.7-11.4,41.3-10.6c15.6,0.8,15.3,8.2,15.3,8.2
					s13.8,1.6,11.6,17.5c-2.1,15.9-15.3,35.4-23.8,38.3C896.6,450.5,865.4,416.9,865.4,416.9z"/>
				<path fill="#F9A767" d="M860.4,430.3c0,0-7.6,9.7-7.6,14.1c0,4.3,8.4,2.1,8.4,2.1L860.4,430.3z"/>
				<path fill="#E7B06C" d="M866.7,399.2c0,0-8.7,30.4-7.9,48.1c0.8,17.7,6.6,19.6,6.6,19.6s7.4,2.6,20.9-2.9
					c13.5-5.6,18.8-15.3,18.8-18.2c0-2.9,7.4,0.5,7.4-9c0-9.5-6.6-11.9-9.3-5.8l-3.2,5h-5.3l0.5-13.2c0,0-14-8.5-18.5-15.6
					c-4.5-7.1-4.8-8.7-4.8-8.7L866.7,399.2z"/>
				<path fill="#231F20" d="M867.4,424.5c-1,0-1.8,0.9-2.3,2.1c0.3-0.2,0.6-0.3,1-0.3c0.9,0,1.6,0.6,1.6,1.4c0,0.8-0.7,1.4-1.6,1.4
					c-0.6,0-1.1-0.3-1.3-0.7c0,0.1-0.1,0.3-0.1,0.4c0,2.4,1.2,4.3,2.7,4.3c1.5,0,2.7-1.9,2.7-4.3
					C870.1,426.5,868.9,424.5,867.4,424.5z"/>
				<g>
					
						<rect x="953.2" y="558.3" transform="matrix(0.9866 0.1631 -0.1631 0.9866 113.4065 -148.2932)" fill="#E5F4F8" width="13.7" height="116.8"/>
					
						<rect x="961.4" y="558.9" transform="matrix(0.9866 0.1631 -0.1631 0.9866 113.618 -149.0032)" fill="#B7E4F5" width="5.4" height="116.8"/>
					<path fill="#3DC0C4" d="M955.2,682.9c0.7-2.3,1.1-4.6,1.1-7.1c0-12.9-10.4-23.3-23.3-23.3h-68.6c-12.9,0-23.3,10.4-23.3,23.3
						c0,2.5,0.4,4.9,1.1,7.1H955.2z"/>
					<g>
						<g>
							<rect x="837.3" y="679.6" fill="#E5F4F8" width="121.9" height="5.7"/>
							<polygon fill="#E5F4F8" points="823,825.3 811.5,825.3 843,681 854.4,681 							"/>
							<polygon fill="#E5F4F8" points="971.1,825.3 982.5,825.3 951.1,681 939.6,681 							"/>
						</g>
					</g>
					<path fill="#3DC0C4" d="M959.6,481.5c0-2.4,0.7-4.6,1.8-6.6c-11.1,0.7-19.9,9.9-19.9,21.1v54.8c0,10.6,7.9,19.4,18.1,20.9
						V481.5z"/>
					<rect x="956.3" y="466.8" fill="#E5F4F8" width="10" height="111.9"/>
					<circle fill="#3DC0C4" cx="970.1" cy="561.1" r="9.8"/>
					<circle fill="#E5F4F8" cx="970.1" cy="561.1" r="5.7"/>
				</g>
			</g>
			<g>
				<path fill="#D89F70" d="M577.3,530.3l5.7,18.6c0,0,49.3,2.5,51.4,2.1c2.1-0.4,9.3-4.6,13.6-4.6c4.3,0,11.1,8.2,16.4,13.2
					c5.4,5,5,9.6-0.7,9.3c-5.7-0.4-15-9.3-16.8-9.3s-16.4,6.8-22.9,6.8c-6.4,0-53.2,5.4-56.4,3.6c-3.2-1.8-16.8-35.7-16.8-35.7
					L577.3,530.3z"/>
				<g>
					
						<rect x="433.1" y="558.3" transform="matrix(-0.9866 0.1631 -0.1631 -0.9866 974.6037 1153.3427)" fill="#E5F4F8" width="13.7" height="116.8"/>
					
						<rect x="433.2" y="558.9" transform="matrix(-0.9866 0.1631 -0.1631 -0.9866 966.6128 1155.3225)" fill="#B7E4F5" width="5.4" height="116.8"/>
					<path fill="#3DC0C4" d="M444.8,682.9c-0.7-2.3-1.1-4.6-1.1-7.1c0-12.9,10.4-23.3,23.3-23.3h68.6c12.9,0,23.3,10.4,23.3,23.3
						c0,2.5-0.4,4.9-1.1,7.1H444.8z"/>
					<g>
						<g>
							<rect x="440.9" y="679.6" fill="#E5F4F8" width="121.9" height="5.7"/>
							<polygon fill="#E5F4F8" points="577,825.3 588.5,825.3 557,681 545.6,681 							"/>
							<polygon fill="#E5F4F8" points="428.9,825.3 417.5,825.3 448.9,681 460.4,681 							"/>
						</g>
					</g>
					<path fill="#3DC0C4" d="M440.4,481.5c0-2.4-0.7-4.6-1.8-6.6c11.1,0.7,19.9,9.9,19.9,21.1v54.8c0,10.6-7.9,19.4-18.1,20.9V481.5
						z"/>
					<rect x="433.7" y="466.8" fill="#E5F4F8" width="10" height="111.9"/>
					<circle fill="#3DC0C4" cx="429.9" cy="561.1" r="9.8"/>
					<circle fill="#E5F4F8" cx="429.9" cy="561.1" r="5.7"/>
				</g>
				<path fill="#0A8971" d="M553.2,618.2c0,0,90.5,17.6,98.1,27.1c7.6,9.5-12.9,144.3-12.9,144.3l-39-1.9l2.9-126.2L553.2,618.2z"/>
				<g>
					<polygon fill="#413A39" points="616.9,811.7 604.4,817.5 604.4,826 618.3,826 618.3,822.5 629.4,822.5 629.4,826 686.2,826 
						686.2,815.3 					"/>
					<path fill="#231F20" d="M609.4,795c0,0-5,14.6-5,22.5h81.8c0,0,0.4-7.5-11.1-9.6s-31.4-3.9-33.6-10.4c-2.1-6.4-2.5-9.6-2.5-9.6
						L609.4,795z"/>
				</g>
				<path fill="#289E92" d="M484.7,618.2c0,0-8.1,22.4,5.2,30.5c13.3,8.1,119,30.9,119,30.9l-6.7,116.2l48.1,1
					c0,0,4.8-124.3,4.3-136.7c-0.5-12.4-101.4-41.9-101.4-41.9H484.7z"/>
				<path fill="#D89F70" d="M540.8,429.3c0,0-8.6,25-9.3,28.2c-0.7,3.2,21.8,12.9,21.8,12.9s4.6-12.5,12.1-16.1
					C573,450.7,540.8,429.3,540.8,429.3z"/>
				<path fill="#289E92" d="M555.1,473.6c0,0,17.1,3.2,24.3,58.9l-14.3,2.1L555.1,473.6z"/>
				<path fill="#0A8971" d="M522.8,454.9c0,0,31.3,14.4,36.7,24.8c5.4,10.4,12.4,73.3,13.3,90.5c1,17.1-7.6,50.9-7.6,50.9
					l-26.2,23.8l-69.5-15.2l8.6-39.5c0,0,5.2-62.4,11.9-92.4C496.6,467.7,511.3,456.3,522.8,454.9z"/>
				<path fill="#E7B06C" d="M545.1,530l8.9,16.4c0,0,66.8,11.4,67.9,11.1s7.9-4.3,12.5-6.4c4.6-2.1,16.4,6.1,19.3,9.6
					c2.9,3.6,6.1,7.1,6.1,8.2s-0.7,3.6-5.4,0.7c-4.6-2.9-17.1-5-17.1-5s-8.2,6.4-15.4,6.4c-7.1,0-83.6-2.5-88.6-6.8
					c-5-4.3-9.6-17.5-9.6-17.5L545.1,530z"/>
				<path fill="#289E92" d="M508,484.4c0,0,6.2-10,18.6-6.7c12.4,3.3,27.6,49.5,27.6,49.5s-5.7,30-41.9,25.7c0,0-9.5-46.7-10-51.9
					C501.8,495.8,508,484.4,508,484.4z"/>
				<polygon fill="#289E92" points="517.3,457.8 522.3,447.1 559.1,463.9 557.3,483.6 				"/>
				<path fill="#231F20" d="M595.8,392c0,0,3.6-4,4-8.8c0.5-4.8-15-21.2-36.4-21.2c-21.4,0-30.5,13.1-30,14.8
					c0.5,1.7-12.1-3.6-14.8,7.1c-2.6,10.7,4.8,35.5,10.5,42.9c5.7,7.4,12.9,7.4,12.9,7.4s6.2-0.5,13.8-3.3
					c7.6-2.9,18.8-7.4,20.5-12.9C578,412.5,595.8,392,595.8,392z"/>
				<path fill="#E7B06C" d="M597.1,389.1c0,0,3.1,66.1-11.5,69.2c-14.6,3.1-34.1-3.7-37.2-9.9c-3.1-6.2-5.3-16.4-5.3-16.4
					s-10.9,8.4-13.3-9c-2.5-17.4,10.2-12.4,13-9.6c2.8,2.8,3.4,9.3,3.4,9.3s7.1,0.3,8.1-0.3c0.9-0.6-3.1-10.9-3.1-13.7
					c0-2.8,14.9-13,15.8-14c0.9-0.9-5.3-0.3-5.3-0.3s5.6-5.3,12.1-6.5C580.3,386.6,597.1,389.1,597.1,389.1z"/>
				<path fill="#231F20" d="M601.1,439.6c0,0,0-4.7-4.3-7.4c-4.3-2.8-16.4-2.5-18,7.8L601.1,439.6z"/>
				<path fill="#231F20" d="M589.1,413.6c-1.1,0-2-0.8-2-1.7c0-0.9,0.9-1.7,2-1.7c0.2,0,0.3,0,0.5,0.1c-0.5-1-1.3-1.6-2.1-1.6
					c-1.6,0-2.9,2.6-2.9,5.7c0,3.2,1.3,5.7,2.9,5.7c1.6,0,2.9-2.6,2.9-5.7c0-0.4,0-0.8-0.1-1.2C590.1,413.4,589.7,413.6,589.1,413.6
					z"/>
			</g>
		</g>
	</g>
</g>
</svg>
